<svg width="520" height="276" viewBox="0 0 520 276" fill="none" xmlns="http://www.w3.org/2000/svg">
<rect width="520" height="276" rx="14" fill="#0d1117"/>
<text x="260.0" y="34" text-anchor="middle" fill="#c9d1d9" font-size="20" font-family="Segoe UI, Ubuntu, sans-serif" font-weight="700">My Top Languages</text>
<circle cx="30" cy="67" r="6" fill="#3572A5"/>
<text x="46" y="72" fill="#c9d1d9" font-size="14" font-family="Segoe UI, Ubuntu, sans-serif">Python</text>
<rect x="150" y="60" width="270" height="12" rx="6" fill="#21262d"/>
<rect x="150" y="60" width="127" height="12" rx="6" fill="#3572A5"/>
<text x="450" y="72" fill="#c9d1d9" font-size="13" font-family="Segoe UI, Ubuntu, sans-serif">43.8%</text>
<circle cx="30" cy="101" r="6" fill="#b07219"/>
<text x="46" y="106" fill="#c9d1d9" font-size="14" font-family="Segoe UI, Ubuntu, sans-serif">Java</text>
<rect x="150" y="94" width="270" height="12" rx="6" fill="#21262d"/>
<rect x="150" y="94" width="54" height="12" rx="6" fill="#b07219"/>
<text x="450" y="106" fill="#c9d1d9" font-size="13" font-family="Segoe UI, Ubuntu, sans-serif">18.8%</text>
<circle cx="30" cy="135" r="6" fill="#f34b7d"/>
<text x="46" y="140" fill="#c9d1d9" font-size="14" font-family="Segoe UI, Ubuntu, sans-serif">C++</text>
<rect x="150" y="128" width="270" height="12" rx="6" fill="#21262d"/>
<rect x="150" y="128" width="36" height="12" rx="6" fill="#f34b7d"/>
<text x="450" y="140" fill="#c9d1d9" font-size="13" font-family="Segoe UI, Ubuntu, sans-serif">12.5%</text>
<circle cx="30" cy="169" r="6" fill="#89e051"/>
<text x="46" y="174" fill="#c9d1d9" font-size="14" font-family="Segoe UI, Ubuntu, sans-serif">Shell</text>
<rect x="150" y="162" width="270" height="12" rx="6" fill="#21262d"/>
<rect x="150" y="162" width="36" height="12" rx="6" fill="#89e051"/>
<text x="450" y="174" fill="#c9d1d9" font-size="13" font-family="Segoe UI, Ubuntu, sans-serif">12.5%</text>
<circle cx="30" cy="203" r="6" fill="#bb92ac"/>
<text x="46" y="208" fill="#c9d1d9" font-size="14" font-family="Segoe UI, Ubuntu, sans-serif">MATLAB</text>
<rect x="150" y="196" width="270" height="12" rx="6" fill="#21262d"/>
<rect x="150" y="196" width="17" height="12" rx="6" fill="#bb92ac"/>
<text x="450" y="208" fill="#c9d1d9" font-size="13" font-family="Segoe UI, Ubuntu, sans-serif">6.2%</text>
<circle cx="30" cy="237" r="6" fill="#e44b23"/>
<text x="46" y="242" fill="#c9d1d9" font-size="14" font-family="Segoe UI, Ubuntu, sans-serif">HTML</text>
<rect x="150" y="230" width="270" height="12" rx="6" fill="#21262d"/>
<rect x="150" y="230" width="17" height="12" rx="6" fill="#e44b23"/>
<text x="450" y="242" fill="#c9d1d9" font-size="13" font-family="Segoe UI, Ubuntu, sans-serif">6.2%</text>
</svg>