<svg width="520" height="284" viewBox="0 0 520 284" fill="none" xmlns="http://www.w3.org/2000/svg">
<rect width="520" height="284" rx="14" fill="#0d1117"/>
<text x="24" y="34" fill="#c9d1d9" font-size="20" font-family="Segoe UI, Ubuntu, sans-serif" font-weight="700">My Top Languages</text>
<text x="24" y="53" fill="#8b949e" font-size="12" font-family="Segoe UI, Ubuntu, sans-serif">Based on repository count</text>
<circle cx="30" cy="71" r="6" fill="#2EA043"/>
<text x="46" y="76" fill="#c9d1d9" font-size="14" font-family="Segoe UI, Ubuntu, sans-serif">Python</text>
<rect x="150" y="64" width="280" height="12" rx="6" fill="#21262d"/>
<rect x="150" y="64" width="135" height="12" rx="6" fill="#2EA043"/>
<text x="442" y="76" fill="#c9d1d9" font-size="13" font-family="Segoe UI, Ubuntu, sans-serif">43.8%</text>
<text x="482" y="76" fill="#8b949e" font-size="12" font-family="Segoe UI, Ubuntu, sans-serif">7</text>
<circle cx="30" cy="105" r="6" fill="#f89820"/>
<text x="46" y="110" fill="#c9d1d9" font-size="14" font-family="Segoe UI, Ubuntu, sans-serif">Java</text>
<rect x="150" y="98" width="280" height="12" rx="6" fill="#21262d"/>
<rect x="150" y="98" width="58" height="12" rx="6" fill="#f89820"/>
<text x="442" y="110" fill="#c9d1d9" font-size="13" font-family="Segoe UI, Ubuntu, sans-serif">18.8%</text>
<text x="482" y="110" fill="#8b949e" font-size="12" font-family="Segoe UI, Ubuntu, sans-serif">3</text>
<circle cx="30" cy="139" r="6" fill="#00599C"/>
<text x="46" y="144" fill="#c9d1d9" font-size="14" font-family="Segoe UI, Ubuntu, sans-serif">C++</text>
<rect x="150" y="132" width="280" height="12" rx="6" fill="#21262d"/>
<rect x="150" y="132" width="38" height="12" rx="6" fill="#00599C"/>
<text x="442" y="144" fill="#c9d1d9" font-size="13" font-family="Segoe UI, Ubuntu, sans-serif">12.5%</text>
<text x="482" y="144" fill="#8b949e" font-size="12" font-family="Segoe UI, Ubuntu, sans-serif">2</text>
<circle cx="30" cy="173" r="6" fill="#89E051"/>
<text x="46" y="178" fill="#c9d1d9" font-size="14" font-family="Segoe UI, Ubuntu, sans-serif">Shell</text>
<rect x="150" y="166" width="280" height="12" rx="6" fill="#21262d"/>
<rect x="150" y="166" width="38" height="12" rx="6" fill="#89E051"/>
<text x="442" y="178" fill="#c9d1d9" font-size="13" font-family="Segoe UI, Ubuntu, sans-serif">12.5%</text>
<text x="482" y="178" fill="#8b949e" font-size="12" font-family="Segoe UI, Ubuntu, sans-serif">2</text>
<circle cx="30" cy="207" r="6" fill="#e16737"/>
<text x="46" y="212" fill="#c9d1d9" font-size="14" font-family="Segoe UI, Ubuntu, sans-serif">MATLAB</text>
<rect x="150" y="200" width="280" height="12" rx="6" fill="#21262d"/>
<rect x="150" y="200" width="19" height="12" rx="6" fill="#e16737"/>
<text x="442" y="212" fill="#c9d1d9" font-size="13" font-family="Segoe UI, Ubuntu, sans-serif">6.2%</text>
<text x="482" y="212" fill="#8b949e" font-size="12" font-family="Segoe UI, Ubuntu, sans-serif">1</text>
<circle cx="30" cy="241" r="6" fill="#e34c26"/>
<text x="46" y="246" fill="#c9d1d9" font-size="14" font-family="Segoe UI, Ubuntu, sans-serif">HTML</text>
<rect x="150" y="234" width="280" height="12" rx="6" fill="#21262d"/>
<rect x="150" y="234" width="19" height="12" rx="6" fill="#e34c26"/>
<text x="442" y="246" fill="#c9d1d9" font-size="13" font-family="Segoe UI, Ubuntu, sans-serif">6.2%</text>
<text x="482" y="246" fill="#8b949e" font-size="12" font-family="Segoe UI, Ubuntu, sans-serif">1</text>
</svg>